<svg width="74" height="18" viewBox="0 0 74 18" fill="none" xmlns="http://www.w3.org/2000/svg">
<path d="M17.401 8.605H14.665L14.161 10H13.297L15.565 3.763H16.51L18.769 10H17.905L17.401 8.605ZM17.167 7.939L16.033 4.771L14.899 7.939H17.167ZM22.1605 4.978C22.7605 4.978 23.2465 5.161 23.6185 5.527C23.9905 5.887 24.1765 6.409 24.1765 7.093V10H23.3665V7.21C23.3665 6.718 23.2435 6.343 22.9975 6.085C22.7515 5.821 22.4155 5.689 21.9895 5.689C21.5575 5.689 21.2125 5.824 20.9545 6.094C20.7025 6.364 20.5765 6.757 20.5765 7.273V10H19.7575V5.068H20.5765V5.77C20.7385 5.518 20.9575 5.323 21.2335 5.185C21.5155 5.047 21.8245 4.978 22.1605 4.978ZM27.2603 10.081C26.8823 10.081 26.5433 10.018 26.2433 9.892C25.9433 9.76 25.7063 9.58 25.5323 9.352C25.3583 9.118 25.2623 8.851 25.2443 8.551H26.0903C26.1143 8.797 26.2283 8.998 26.4323 9.154C26.6423 9.31 26.9153 9.388 27.2513 9.388C27.5633 9.388 27.8093 9.319 27.9893 9.181C28.1693 9.043 28.2593 8.869 28.2593 8.659C28.2593 8.443 28.1633 8.284 27.9713 8.182C27.7793 8.074 27.4823 7.969 27.0803 7.867C26.7143 7.771 26.4143 7.675 26.1803 7.579C25.9523 7.477 25.7543 7.33 25.5863 7.138C25.4243 6.94 25.3433 6.682 25.3433 6.364C25.3433 6.112 25.4183 5.881 25.5683 5.671C25.7183 5.461 25.9313 5.296 26.2073 5.176C26.4833 5.05 26.7983 4.987 27.1523 4.987C27.6983 4.987 28.1393 5.125 28.4753 5.401C28.8113 5.677 28.9913 6.055 29.0153 6.535H28.1963C28.1783 6.277 28.0733 6.07 27.8813 5.914C27.6953 5.758 27.4433 5.68 27.1253 5.68C26.8313 5.68 26.5973 5.743 26.4233 5.869C26.2493 5.995 26.1623 6.16 26.1623 6.364C26.1623 6.526 26.2133 6.661 26.3153 6.769C26.4233 6.871 26.5553 6.955 26.7113 7.021C26.8733 7.081 27.0953 7.15 27.3773 7.228C27.7313 7.324 28.0193 7.42 28.2413 7.516C28.4633 7.606 28.6523 7.744 28.8083 7.93C28.9703 8.116 29.0543 8.359 29.0603 8.659C29.0603 8.929 28.9853 9.172 28.8353 9.388C28.6853 9.604 28.4723 9.775 28.1963 9.901C27.9263 10.021 27.6143 10.081 27.2603 10.081ZM36.7864 5.068L35.2474 10H34.4014L33.2134 6.085L32.0254 10H31.1794L29.6314 5.068H30.4684L31.6024 9.208L32.8264 5.068H33.6634L34.8604 9.217L35.9764 5.068H36.7864ZM42.0993 7.345C42.0993 7.501 42.0903 7.666 42.0723 7.84H38.1303C38.1603 8.326 38.3253 8.707 38.6253 8.983C38.9313 9.253 39.3003 9.388 39.7323 9.388C40.0863 9.388 40.3803 9.307 40.6143 9.145C40.8543 8.977 41.0223 8.755 41.1183 8.479H42.0003C41.8683 8.953 41.6043 9.34 41.2083 9.64C40.8123 9.934 40.3203 10.081 39.7323 10.081C39.2643 10.081 38.8443 9.976 38.4723 9.766C38.1063 9.556 37.8183 9.259 37.6083 8.875C37.3983 8.485 37.2933 8.035 37.2933 7.525C37.2933 7.015 37.3953 6.568 37.5993 6.184C37.8033 5.8 38.0883 5.506 38.4543 5.302C38.8263 5.092 39.2523 4.987 39.7323 4.987C40.2003 4.987 40.6143 5.089 40.9743 5.293C41.3343 5.497 41.6103 5.779 41.8023 6.139C42.0003 6.493 42.0993 6.895 42.0993 7.345ZM41.2533 7.174C41.2533 6.862 41.1843 6.595 41.0463 6.373C40.9083 6.145 40.7193 5.974 40.4793 5.86C40.2453 5.74 39.9843 5.68 39.6963 5.68C39.2823 5.68 38.9283 5.812 38.6343 6.076C38.3463 6.34 38.1813 6.706 38.1393 7.174H41.2533ZM43.9993 5.869C44.1433 5.587 44.3473 5.368 44.6113 5.212C44.8813 5.056 45.2083 4.978 45.5923 4.978V5.824H45.3763C44.4583 5.824 43.9993 6.322 43.9993 7.318V10H43.1803V5.068H43.9993V5.869ZM51.0377 7.345C51.0377 7.501 51.0287 7.666 51.0107 7.84H47.0687C47.0987 8.326 47.2637 8.707 47.5637 8.983C47.8697 9.253 48.2387 9.388 48.6707 9.388C49.0247 9.388 49.3187 9.307 49.5527 9.145C49.7927 8.977 49.9607 8.755 50.0567 8.479H50.9387C50.8067 8.953 50.5427 9.34 50.1467 9.64C49.7507 9.934 49.2587 10.081 48.6707 10.081C48.2027 10.081 47.7827 9.976 47.4107 9.766C47.0447 9.556 46.7567 9.259 46.5467 8.875C46.3367 8.485 46.2317 8.035 46.2317 7.525C46.2317 7.015 46.3337 6.568 46.5377 6.184C46.7417 5.8 47.0267 5.506 47.3927 5.302C47.7647 5.092 48.1907 4.987 48.6707 4.987C49.1387 4.987 49.5527 5.089 49.9127 5.293C50.2727 5.497 50.5487 5.779 50.7407 6.139C50.9387 6.493 51.0377 6.895 51.0377 7.345ZM50.1917 7.174C50.1917 6.862 50.1227 6.595 49.9847 6.373C49.8467 6.145 49.6577 5.974 49.4177 5.86C49.1837 5.74 48.9227 5.68 48.6347 5.68C48.2207 5.68 47.8667 5.812 47.5727 6.076C47.2847 6.34 47.1197 6.706 47.0777 7.174H50.1917ZM51.8128 7.516C51.8128 7.012 51.9148 6.571 52.1188 6.193C52.3228 5.809 52.6018 5.512 52.9558 5.302C53.3158 5.092 53.7178 4.987 54.1618 4.987C54.5458 4.987 54.9028 5.077 55.2328 5.257C55.5628 5.431 55.8148 5.662 55.9888 5.95V3.34H56.8168V10H55.9888V9.073C55.8268 9.367 55.5868 9.61 55.2688 9.802C54.9508 9.988 54.5788 10.081 54.1528 10.081C53.7148 10.081 53.3158 9.973 52.9558 9.757C52.6018 9.541 52.3228 9.238 52.1188 8.848C51.9148 8.458 51.8128 8.014 51.8128 7.516ZM55.9888 7.525C55.9888 7.153 55.9138 6.829 55.7638 6.553C55.6138 6.277 55.4098 6.067 55.1518 5.923C54.8998 5.773 54.6208 5.698 54.3148 5.698C54.0088 5.698 53.7298 5.77 53.4778 5.914C53.2258 6.058 53.0248 6.268 52.8748 6.544C52.7248 6.82 52.6498 7.144 52.6498 7.516C52.6498 7.894 52.7248 8.224 52.8748 8.506C53.0248 8.782 53.2258 8.995 53.4778 9.145C53.7298 9.289 54.0088 9.361 54.3148 9.361C54.6208 9.361 54.8998 9.289 55.1518 9.145C55.4098 8.995 55.6138 8.782 55.7638 8.506C55.9138 8.224 55.9888 7.897 55.9888 7.525Z" fill="#999999"/>
<circle cx="3" cy="7" r="3" fill="#319EAE"/>
</svg>
