<svg width="375" height="812" viewBox="0 0 375 812" fill="none" xmlns="http://www.w3.org/2000/svg" xmlns:xlink="http://www.w3.org/1999/xlink">
<g clip-path="url(#clip0_48_1769)">
<rect width="375" height="812" rx="31" fill="white"/>
<rect x="375" width="812" height="375" transform="rotate(90 375 0)" fill="url(#paint0_linear_48_1769)"/>
<rect x="-27" width="444" height="812" fill="url(#paint1_linear_48_1769)"/>
<g filter="url(#filter0_b_48_1769)">
<circle cx="184.699" cy="395.394" r="270.301" stroke="url(#paint2_radial_48_1769)" stroke-opacity="0.1" stroke-width="50"/>
</g>
<g filter="url(#filter1_b_48_1769)">
<path d="M371.742 404.522C371.742 507.468 288.059 591.028 184.699 591.028C81.3389 591.028 -2.34436 507.468 -2.34436 404.522C-2.34436 301.576 81.3389 218.016 184.699 218.016C288.059 218.016 371.742 301.576 371.742 404.522Z" stroke="url(#paint3_radial_48_1769)" stroke-opacity="0.3" stroke-width="49"/>
</g>
<path d="M304.5 405C304.5 469.283 252.176 521.5 187.5 521.5C122.824 521.5 70.5 469.283 70.5 405C70.5 340.717 122.824 288.5 187.5 288.5C252.176 288.5 304.5 340.717 304.5 405Z" stroke="url(#paint4_radial_48_1769)" stroke-opacity="0.91" stroke-width="33"/>
<ellipse cx="187" cy="405.5" rx="78" ry="78.5" fill="white"/>
<rect x="99" y="317" width="176" height="176" fill="url(#pattern0)"/>
</g>
<defs>
<filter id="filter0_b_48_1769" x="-120.603" y="90.093" width="610.603" height="610.603" filterUnits="userSpaceOnUse" color-interpolation-filters="sRGB">
<feFlood flood-opacity="0" result="BackgroundImageFix"/>
<feGaussianBlur in="BackgroundImageFix" stdDeviation="5"/>
<feComposite in2="SourceAlpha" operator="in" result="effect1_backgroundBlur_48_1769"/>
<feBlend mode="normal" in="SourceGraphic" in2="effect1_backgroundBlur_48_1769" result="shape"/>
</filter>
<filter id="filter1_b_48_1769" x="-36.8444" y="183.516" width="443.086" height="442.012" filterUnits="userSpaceOnUse" color-interpolation-filters="sRGB">
<feFlood flood-opacity="0" result="BackgroundImageFix"/>
<feGaussianBlur in="BackgroundImageFix" stdDeviation="5"/>
<feComposite in2="SourceAlpha" operator="in" result="effect1_backgroundBlur_48_1769"/>
<feBlend mode="normal" in="SourceGraphic" in2="effect1_backgroundBlur_48_1769" result="shape"/>
</filter>
<pattern id="pattern0" patternContentUnits="objectBoundingBox" width="1" height="1">
<use xlink:href="#image0_48_1769" transform="scale(0.000488281)"/>
</pattern>
<linearGradient id="paint0_linear_48_1769" x1="375" y1="187.5" x2="1187" y2="187.5" gradientUnits="userSpaceOnUse">
<stop stop-color="#ACB6E5"/>
<stop offset="1" stop-color="#86FDE8"/>
</linearGradient>
<linearGradient id="paint1_linear_48_1769" x1="195" y1="0" x2="195" y2="812" gradientUnits="userSpaceOnUse">
<stop stop-color="#65A35E"/>
<stop offset="1" stop-color="#2F9EB1"/>
</linearGradient>
<radialGradient id="paint2_radial_48_1769" cx="0" cy="0" r="1" gradientUnits="userSpaceOnUse" gradientTransform="translate(176.393 408.314) rotate(88.7897) scale(393.208)">
<stop offset="0.654764" stop-color="#E2F6FC" stop-opacity="0.36"/>
<stop offset="1" stop-color="#48B7D6" stop-opacity="0.84"/>
</radialGradient>
<radialGradient id="paint3_radial_48_1769" cx="0" cy="0" r="1" gradientUnits="userSpaceOnUse" gradientTransform="translate(178.749 413.753) rotate(88.7866) scale(280.965 281.679)">
<stop offset="0.654764" stop-color="#E2F6FC" stop-opacity="0.36"/>
<stop offset="1" stop-color="#48B7D6" stop-opacity="0.84"/>
</radialGradient>
<radialGradient id="paint4_radial_48_1769" cx="0" cy="0" r="1" gradientUnits="userSpaceOnUse" gradientTransform="translate(183.745 410.819) rotate(88.7852) scale(177.096 177.761)">
<stop offset="0.654764" stop-color="#E2F6FC" stop-opacity="0.36"/>
<stop offset="1" stop-color="#48B7D6" stop-opacity="0"/>
</radialGradient>
<clipPath id="clip0_48_1769">
<rect width="375" height="812" rx="31" fill="white"/>
</clipPath>
</defs>
</svg>
