<svg width="94" height="18" viewBox="0 0 94 18" fill="none" xmlns="http://www.w3.org/2000/svg">
<path d="M17.625 10H16.806L13.512 5.005V10H12.693V3.718H13.512L16.806 8.704V3.718H17.625V10ZM21.1721 10.081C20.7101 10.081 20.2901 9.976 19.9121 9.766C19.5401 9.556 19.2461 9.259 19.0301 8.875C18.8201 8.485 18.7151 8.035 18.7151 7.525C18.7151 7.021 18.8231 6.577 19.0391 6.193C19.2611 5.803 19.5611 5.506 19.9391 5.302C20.3171 5.092 20.7401 4.987 21.2081 4.987C21.6761 4.987 22.0991 5.092 22.4771 5.302C22.8551 5.506 23.1521 5.8 23.3681 6.184C23.5901 6.568 23.7011 7.015 23.7011 7.525C23.7011 8.035 23.5871 8.485 23.3591 8.875C23.1371 9.259 22.8341 9.556 22.4501 9.766C22.0661 9.976 21.6401 10.081 21.1721 10.081ZM21.1721 9.361C21.4661 9.361 21.7421 9.292 22.0001 9.154C22.2581 9.016 22.4651 8.809 22.6211 8.533C22.7831 8.257 22.8641 7.921 22.8641 7.525C22.8641 7.129 22.7861 6.793 22.6301 6.517C22.4741 6.241 22.2701 6.037 22.0181 5.905C21.7661 5.767 21.4931 5.698 21.1991 5.698C20.8991 5.698 20.6231 5.767 20.3711 5.905C20.1251 6.037 19.9271 6.241 19.7771 6.517C19.6271 6.793 19.5521 7.129 19.5521 7.525C19.5521 7.927 19.6241 8.266 19.7681 8.542C19.9181 8.818 20.1161 9.025 20.3621 9.163C20.6081 9.295 20.8781 9.361 21.1721 9.361ZM25.777 5.743V8.65C25.777 8.89 25.828 9.061 25.93 9.163C26.032 9.259 26.209 9.307 26.461 9.307H27.064V10H26.326C25.87 10 25.528 9.895 25.3 9.685C25.072 9.475 24.958 9.13 24.958 8.65V5.743H24.319V5.068H24.958V3.826H25.777V5.068H27.064V5.743H25.777ZM34.1637 8.605H31.4277L30.9237 10H30.0597L32.3277 3.763H33.2727L35.5317 10H34.6677L34.1637 8.605ZM33.9297 7.939L32.7957 4.771L31.6617 7.939H33.9297ZM38.9231 4.978C39.5231 4.978 40.0091 5.161 40.3811 5.527C40.7531 5.887 40.9391 6.409 40.9391 7.093V10H40.1291V7.21C40.1291 6.718 40.0061 6.343 39.7601 6.085C39.5141 5.821 39.1781 5.689 38.7521 5.689C38.3201 5.689 37.9751 5.824 37.7171 6.094C37.4651 6.364 37.3391 6.757 37.3391 7.273V10H36.5201V5.068H37.3391V5.77C37.5011 5.518 37.7201 5.323 37.9961 5.185C38.2781 5.047 38.5871 4.978 38.9231 4.978ZM44.023 10.081C43.645 10.081 43.306 10.018 43.006 9.892C42.706 9.76 42.469 9.58 42.295 9.352C42.121 9.118 42.025 8.851 42.007 8.551H42.853C42.877 8.797 42.991 8.998 43.195 9.154C43.405 9.31 43.678 9.388 44.014 9.388C44.326 9.388 44.572 9.319 44.752 9.181C44.932 9.043 45.022 8.869 45.022 8.659C45.022 8.443 44.926 8.284 44.734 8.182C44.542 8.074 44.245 7.969 43.843 7.867C43.477 7.771 43.177 7.675 42.943 7.579C42.715 7.477 42.517 7.33 42.349 7.138C42.187 6.94 42.106 6.682 42.106 6.364C42.106 6.112 42.181 5.881 42.331 5.671C42.481 5.461 42.694 5.296 42.97 5.176C43.246 5.05 43.561 4.987 43.915 4.987C44.461 4.987 44.902 5.125 45.238 5.401C45.574 5.677 45.754 6.055 45.778 6.535H44.959C44.941 6.277 44.836 6.07 44.644 5.914C44.458 5.758 44.206 5.68 43.888 5.68C43.594 5.68 43.36 5.743 43.186 5.869C43.012 5.995 42.925 6.16 42.925 6.364C42.925 6.526 42.976 6.661 43.078 6.769C43.186 6.871 43.318 6.955 43.474 7.021C43.636 7.081 43.858 7.15 44.14 7.228C44.494 7.324 44.782 7.42 45.004 7.516C45.226 7.606 45.415 7.744 45.571 7.93C45.733 8.116 45.817 8.359 45.823 8.659C45.823 8.929 45.748 9.172 45.598 9.388C45.448 9.604 45.235 9.775 44.959 9.901C44.689 10.021 44.377 10.081 44.023 10.081ZM53.5491 5.068L52.0101 10H51.1641L49.9761 6.085L48.7881 10H47.9421L46.3941 5.068H47.2311L48.3651 9.208L49.5891 5.068H50.4261L51.6231 9.217L52.7391 5.068H53.5491ZM58.8619 7.345C58.8619 7.501 58.8529 7.666 58.8349 7.84H54.8929C54.9229 8.326 55.0879 8.707 55.3879 8.983C55.6939 9.253 56.0629 9.388 56.4949 9.388C56.8489 9.388 57.1429 9.307 57.3769 9.145C57.6169 8.977 57.7849 8.755 57.8809 8.479H58.7629C58.6309 8.953 58.3669 9.34 57.9709 9.64C57.5749 9.934 57.0829 10.081 56.4949 10.081C56.0269 10.081 55.6069 9.976 55.2349 9.766C54.8689 9.556 54.5809 9.259 54.3709 8.875C54.1609 8.485 54.0559 8.035 54.0559 7.525C54.0559 7.015 54.1579 6.568 54.3619 6.184C54.5659 5.8 54.8509 5.506 55.2169 5.302C55.5889 5.092 56.0149 4.987 56.4949 4.987C56.9629 4.987 57.3769 5.089 57.7369 5.293C58.0969 5.497 58.3729 5.779 58.5649 6.139C58.7629 6.493 58.8619 6.895 58.8619 7.345ZM58.0159 7.174C58.0159 6.862 57.9469 6.595 57.8089 6.373C57.6709 6.145 57.4819 5.974 57.2419 5.86C57.0079 5.74 56.7469 5.68 56.4589 5.68C56.0449 5.68 55.6909 5.812 55.3969 6.076C55.1089 6.34 54.9439 6.706 54.9019 7.174H58.0159ZM60.762 5.869C60.906 5.587 61.11 5.368 61.374 5.212C61.644 5.056 61.971 4.978 62.355 4.978V5.824H62.139C61.221 5.824 60.762 6.322 60.762 7.318V10H59.943V5.068H60.762V5.869ZM67.8004 7.345C67.8004 7.501 67.7914 7.666 67.7734 7.84H63.8314C63.8614 8.326 64.0264 8.707 64.3264 8.983C64.6324 9.253 65.0014 9.388 65.4334 9.388C65.7874 9.388 66.0814 9.307 66.3154 9.145C66.5554 8.977 66.7234 8.755 66.8194 8.479H67.7014C67.5694 8.953 67.3054 9.34 66.9094 9.64C66.5134 9.934 66.0214 10.081 65.4334 10.081C64.9654 10.081 64.5454 9.976 64.1734 9.766C63.8074 9.556 63.5194 9.259 63.3094 8.875C63.0994 8.485 62.9944 8.035 62.9944 7.525C62.9944 7.015 63.0964 6.568 63.3004 6.184C63.5044 5.8 63.7894 5.506 64.1554 5.302C64.5274 5.092 64.9534 4.987 65.4334 4.987C65.9014 4.987 66.3154 5.089 66.6754 5.293C67.0354 5.497 67.3114 5.779 67.5034 6.139C67.7014 6.493 67.8004 6.895 67.8004 7.345ZM66.9544 7.174C66.9544 6.862 66.8854 6.595 66.7474 6.373C66.6094 6.145 66.4204 5.974 66.1804 5.86C65.9464 5.74 65.6854 5.68 65.3974 5.68C64.9834 5.68 64.6294 5.812 64.3354 6.076C64.0474 6.34 63.8824 6.706 63.8404 7.174H66.9544ZM68.5755 7.516C68.5755 7.012 68.6775 6.571 68.8815 6.193C69.0855 5.809 69.3645 5.512 69.7185 5.302C70.0785 5.092 70.4805 4.987 70.9245 4.987C71.3085 4.987 71.6655 5.077 71.9955 5.257C72.3255 5.431 72.5775 5.662 72.7515 5.95V3.34H73.5795V10H72.7515V9.073C72.5895 9.367 72.3495 9.61 72.0315 9.802C71.7135 9.988 71.3415 10.081 70.9155 10.081C70.4775 10.081 70.0785 9.973 69.7185 9.757C69.3645 9.541 69.0855 9.238 68.8815 8.848C68.6775 8.458 68.5755 8.014 68.5755 7.516ZM72.7515 7.525C72.7515 7.153 72.6765 6.829 72.5265 6.553C72.3765 6.277 72.1725 6.067 71.9145 5.923C71.6625 5.773 71.3835 5.698 71.0775 5.698C70.7715 5.698 70.4925 5.77 70.2405 5.914C69.9885 6.058 69.7875 6.268 69.6375 6.544C69.4875 6.82 69.4125 7.144 69.4125 7.516C69.4125 7.894 69.4875 8.224 69.6375 8.506C69.7875 8.782 69.9885 8.995 70.2405 9.145C70.4925 9.289 70.7715 9.361 71.0775 9.361C71.3835 9.361 71.6625 9.289 71.9145 9.145C72.1725 8.995 72.3765 8.782 72.5265 8.506C72.6765 8.224 72.7515 7.897 72.7515 7.525Z" fill="#999999"/>
<circle cx="3" cy="7" r="3" fill="#DA9F2C"/>
</svg>
