<svg width="66" height="10" viewBox="0 0 66 10" fill="none" xmlns="http://www.w3.org/2000/svg">
<path d="M5.625 7H4.806L1.512 2.005V7H0.693V0.718H1.512L4.806 5.704V0.718H5.625V7ZM9.17213 7.081C8.71013 7.081 8.29013 6.976 7.91213 6.766C7.54013 6.556 7.24613 6.259 7.03013 5.875C6.82013 5.485 6.71513 5.035 6.71513 4.525C6.71513 4.021 6.82313 3.577 7.03913 3.193C7.26113 2.803 7.56113 2.506 7.93913 2.302C8.31713 2.092 8.74013 1.987 9.20813 1.987C9.67613 1.987 10.0991 2.092 10.4771 2.302C10.8551 2.506 11.1521 2.8 11.3681 3.184C11.5901 3.568 11.7011 4.015 11.7011 4.525C11.7011 5.035 11.5871 5.485 11.3591 5.875C11.1371 6.259 10.8341 6.556 10.4501 6.766C10.0661 6.976 9.64013 7.081 9.17213 7.081ZM9.17213 6.361C9.46613 6.361 9.74213 6.292 10.0001 6.154C10.2581 6.016 10.4651 5.809 10.6211 5.533C10.7831 5.257 10.8641 4.921 10.8641 4.525C10.8641 4.129 10.7861 3.793 10.6301 3.517C10.4741 3.241 10.2701 3.037 10.0181 2.905C9.76613 2.767 9.49313 2.698 9.19913 2.698C8.89913 2.698 8.62313 2.767 8.37113 2.905C8.12513 3.037 7.92713 3.241 7.77713 3.517C7.62713 3.793 7.55213 4.129 7.55213 4.525C7.55213 4.927 7.62413 5.266 7.76813 5.542C7.91813 5.818 8.11613 6.025 8.36213 6.163C8.60813 6.295 8.87813 6.361 9.17213 6.361ZM13.777 2.743V5.65C13.777 5.89 13.828 6.061 13.93 6.163C14.032 6.259 14.209 6.307 14.461 6.307H15.064V7H14.326C13.87 7 13.528 6.895 13.3 6.685C13.072 6.475 12.958 6.13 12.958 5.65V2.743H12.319V2.068H12.958V0.826H13.777V2.068H15.064V2.743H13.777ZM22.1637 5.605H19.4277L18.9237 7H18.0597L20.3277 0.763H21.2727L23.5317 7H22.6677L22.1637 5.605ZM21.9297 4.939L20.7957 1.771L19.6617 4.939H21.9297ZM25.5191 2.743V5.65C25.5191 5.89 25.5701 6.061 25.6721 6.163C25.7741 6.259 25.9511 6.307 26.2031 6.307H26.8061V7H26.0681C25.6121 7 25.2701 6.895 25.0421 6.685C24.8141 6.475 24.7001 6.13 24.7001 5.65V2.743H24.0611V2.068H24.7001V0.826H25.5191V2.068H26.8061V2.743H25.5191ZM28.7975 2.743V5.65C28.7975 5.89 28.8485 6.061 28.9505 6.163C29.0525 6.259 29.2295 6.307 29.4815 6.307H30.0845V7H29.3465C28.8905 7 28.5485 6.895 28.3205 6.685C28.0925 6.475 27.9785 6.13 27.9785 5.65V2.743H27.3395V2.068H27.9785V0.826H28.7975V2.068H30.0845V2.743H28.7975ZM35.5768 4.345C35.5768 4.501 35.5678 4.666 35.5498 4.84H31.6078C31.6378 5.326 31.8028 5.707 32.1028 5.983C32.4088 6.253 32.7778 6.388 33.2098 6.388C33.5638 6.388 33.8578 6.307 34.0918 6.145C34.3318 5.977 34.4998 5.755 34.5958 5.479H35.4778C35.3458 5.953 35.0818 6.34 34.6858 6.64C34.2898 6.934 33.7978 7.081 33.2098 7.081C32.7418 7.081 32.3218 6.976 31.9498 6.766C31.5838 6.556 31.2958 6.259 31.0858 5.875C30.8758 5.485 30.7708 5.035 30.7708 4.525C30.7708 4.015 30.8728 3.568 31.0768 3.184C31.2808 2.8 31.5658 2.506 31.9318 2.302C32.3038 2.092 32.7298 1.987 33.2098 1.987C33.6778 1.987 34.0918 2.089 34.4518 2.293C34.8118 2.497 35.0878 2.779 35.2798 3.139C35.4778 3.493 35.5768 3.895 35.5768 4.345ZM34.7308 4.174C34.7308 3.862 34.6618 3.595 34.5238 3.373C34.3858 3.145 34.1968 2.974 33.9568 2.86C33.7228 2.74 33.4618 2.68 33.1738 2.68C32.7598 2.68 32.4058 2.812 32.1118 3.076C31.8238 3.34 31.6588 3.706 31.6168 4.174H34.7308ZM42.5888 1.978C42.9728 1.978 43.3148 2.059 43.6148 2.221C43.9148 2.377 44.1518 2.614 44.3258 2.932C44.4998 3.25 44.5868 3.637 44.5868 4.093V7H43.7768V4.21C43.7768 3.718 43.6538 3.343 43.4078 3.085C43.1678 2.821 42.8408 2.689 42.4268 2.689C42.0008 2.689 41.6618 2.827 41.4098 3.103C41.1578 3.373 41.0318 3.766 41.0318 4.282V7H40.2218V4.21C40.2218 3.718 40.0988 3.343 39.8528 3.085C39.6128 2.821 39.2858 2.689 38.8718 2.689C38.4458 2.689 38.1068 2.827 37.8548 3.103C37.6028 3.373 37.4768 3.766 37.4768 4.282V7H36.6578V2.068H37.4768V2.779C37.6388 2.521 37.8548 2.323 38.1248 2.185C38.4008 2.047 38.7038 1.978 39.0338 1.978C39.4478 1.978 39.8138 2.071 40.1318 2.257C40.4498 2.443 40.6868 2.716 40.8428 3.076C40.9808 2.728 41.2088 2.458 41.5268 2.266C41.8448 2.074 42.1988 1.978 42.5888 1.978ZM46.7493 2.977C46.9113 2.695 47.1513 2.461 47.4693 2.275C47.7933 2.083 48.1683 1.987 48.5943 1.987C49.0323 1.987 49.4283 2.092 49.7823 2.302C50.1423 2.512 50.4243 2.809 50.6283 3.193C50.8323 3.571 50.9343 4.012 50.9343 4.516C50.9343 5.014 50.8323 5.458 50.6283 5.848C50.4243 6.238 50.1423 6.541 49.7823 6.757C49.4283 6.973 49.0323 7.081 48.5943 7.081C48.1743 7.081 47.8023 6.988 47.4783 6.802C47.1603 6.61 46.9173 6.373 46.7493 6.091V9.34H45.9303V2.068H46.7493V2.977ZM50.0973 4.516C50.0973 4.144 50.0223 3.82 49.8723 3.544C49.7223 3.268 49.5183 3.058 49.2603 2.914C49.0083 2.77 48.7293 2.698 48.4233 2.698C48.1233 2.698 47.8443 2.773 47.5863 2.923C47.3343 3.067 47.1303 3.28 46.9743 3.562C46.8243 3.838 46.7493 4.159 46.7493 4.525C46.7493 4.897 46.8243 5.224 46.9743 5.506C47.1303 5.782 47.3343 5.995 47.5863 6.145C47.8443 6.289 48.1233 6.361 48.4233 6.361C48.7293 6.361 49.0083 6.289 49.2603 6.145C49.5183 5.995 49.7223 5.782 49.8723 5.506C50.0223 5.224 50.0973 4.894 50.0973 4.516ZM53.0113 2.743V5.65C53.0113 5.89 53.0623 6.061 53.1643 6.163C53.2663 6.259 53.4433 6.307 53.6953 6.307H54.2983V7H53.5603C53.1043 7 52.7623 6.895 52.5343 6.685C52.3063 6.475 52.1923 6.13 52.1923 5.65V2.743H51.5533V2.068H52.1923V0.826H53.0113V2.068H54.2983V2.743H53.0113ZM59.7907 4.345C59.7907 4.501 59.7817 4.666 59.7637 4.84H55.8217C55.8517 5.326 56.0167 5.707 56.3167 5.983C56.6227 6.253 56.9917 6.388 57.4237 6.388C57.7777 6.388 58.0717 6.307 58.3057 6.145C58.5457 5.977 58.7137 5.755 58.8097 5.479H59.6917C59.5597 5.953 59.2957 6.34 58.8997 6.64C58.5037 6.934 58.0117 7.081 57.4237 7.081C56.9557 7.081 56.5357 6.976 56.1637 6.766C55.7977 6.556 55.5097 6.259 55.2997 5.875C55.0897 5.485 54.9847 5.035 54.9847 4.525C54.9847 4.015 55.0867 3.568 55.2907 3.184C55.4947 2.8 55.7797 2.506 56.1457 2.302C56.5177 2.092 56.9437 1.987 57.4237 1.987C57.8917 1.987 58.3057 2.089 58.6657 2.293C59.0257 2.497 59.3017 2.779 59.4937 3.139C59.6917 3.493 59.7907 3.895 59.7907 4.345ZM58.9447 4.174C58.9447 3.862 58.8757 3.595 58.7377 3.373C58.5997 3.145 58.4107 2.974 58.1707 2.86C57.9367 2.74 57.6757 2.68 57.3877 2.68C56.9737 2.68 56.6197 2.812 56.3257 3.076C56.0377 3.34 55.8727 3.706 55.8307 4.174H58.9447ZM60.5657 4.516C60.5657 4.012 60.6677 3.571 60.8717 3.193C61.0757 2.809 61.3547 2.512 61.7087 2.302C62.0687 2.092 62.4707 1.987 62.9147 1.987C63.2987 1.987 63.6557 2.077 63.9857 2.257C64.3157 2.431 64.5677 2.662 64.7417 2.95V0.34H65.5697V7H64.7417V6.073C64.5797 6.367 64.3397 6.61 64.0217 6.802C63.7037 6.988 63.3317 7.081 62.9057 7.081C62.4677 7.081 62.0687 6.973 61.7087 6.757C61.3547 6.541 61.0757 6.238 60.8717 5.848C60.6677 5.458 60.5657 5.014 60.5657 4.516ZM64.7417 4.525C64.7417 4.153 64.6667 3.829 64.5167 3.553C64.3667 3.277 64.1627 3.067 63.9047 2.923C63.6527 2.773 63.3737 2.698 63.0677 2.698C62.7617 2.698 62.4827 2.77 62.2307 2.914C61.9787 3.058 61.7777 3.268 61.6277 3.544C61.4777 3.82 61.4027 4.144 61.4027 4.516C61.4027 4.894 61.4777 5.224 61.6277 5.506C61.7777 5.782 61.9787 5.995 62.2307 6.145C62.4827 6.289 62.7617 6.361 63.0677 6.361C63.3737 6.361 63.6527 6.289 63.9047 6.145C64.1627 5.995 64.3667 5.782 64.5167 5.506C64.6667 5.224 64.7417 4.897 64.7417 4.525Z" fill="#999999"/>
</svg>
