<svg width="20" height="19" viewBox="0 0 20 19" fill="none" xmlns="http://www.w3.org/2000/svg">
<path d="M18.6072 16.1132V9.70845C18.6072 9.26285 18.5152 8.82194 18.3367 8.41271C18.1581 8.00349 17.8969 7.63457 17.569 7.32856L11.4599 1.62598C11.1523 1.33866 10.7449 1.17857 10.3215 1.17857C9.89806 1.17857 9.4907 1.33866 9.18302 1.62598L3.07397 7.32856C2.74604 7.63457 2.48481 8.00349 2.30629 8.41271C2.12777 8.82194 2.03572 9.26285 2.03577 9.70845V16.1132C2.03577 16.5473 2.21036 16.9636 2.52113 17.2706C2.83191 17.5776 3.25341 17.75 3.69291 17.75H16.9501C17.3896 17.75 17.8111 17.5776 18.1218 17.2706C18.4326 16.9636 18.6072 16.5473 18.6072 16.1132Z" stroke="#BDBDBD" stroke-width="2.33" stroke-linecap="round" stroke-linejoin="round"/>
</svg>
